HIERARCHY
ROOT Hips
{
	OFFSET -0.001795 -0.223333 0.028219
	CHANNELS 6 Xposition Yposition Zposition Zrotation Yrotation Xrotation 
	JOINT LeftUpLeg
	{
		OFFSET 0.069520 -0.091406 -0.006815
		CHANNELS 3 Zrotation Yrotation Xrotation
		JOINT LeftLeg
		{
			OFFSET 0.034277 -0.375199 -0.004496
			CHANNELS 3 Zrotation Yrotation Xrotation
			JOINT LeftFoot
			{
				OFFSET -0.013596 -0.397961 -0.043693
				CHANNELS 3 Zrotation Yrotation Xrotation
				JOINT LeftToe
				{
					OFFSET 0.026358 -0.055791 0.119288
					CHANNELS 3 Zrotation Yrotation Xrotation
					End Site
					{
						OFFSET 0.000000 0.000000 0.000000
					}
				}
			}
		}
	}
	JOINT RightUpLeg
	{
		OFFSET -0.067670 -0.090522 -0.004320
		CHANNELS 3 Zrotation Yrotation Xrotation
		JOINT RightLeg
		{
			OFFSET -0.038290 -0.382569 -0.008850
			CHANNELS 3 Zrotation Yrotation Xrotation
			JOINT RightFoot
			{
				OFFSET 0.015774 -0.398415 -0.042312
				CHANNELS 3 Zrotation Yrotation Xrotation
				JOINT RightToe
				{
					OFFSET -0.025372 -0.048144 0.123348
					CHANNELS 3 Zrotation Yrotation Xrotation
					End Site
					{
						OFFSET 0.000000 0.000000 0.000000
					}
				}
			}
		}
	}
	JOINT Spine
	{
		OFFSET -0.002533 0.108963 -0.026696
		CHANNELS 3 Zrotation Yrotation Xrotation
		JOINT Spine1
		{
			OFFSET 0.005487 0.135180 0.001092
			CHANNELS 3 Zrotation Yrotation Xrotation
			JOINT Spine2
			{
				OFFSET 0.001457 0.052922 0.025425
				CHANNELS 3 Zrotation Yrotation Xrotation
				JOINT Neck
				{
					OFFSET -0.002778 0.213870 -0.042857
					CHANNELS 3 Zrotation Yrotation Xrotation
					JOINT Head
					{
						OFFSET 0.005152 0.064970 0.051349
						CHANNELS 3 Zrotation Yrotation Xrotation
						End Site
						{
							OFFSET 0.000000 0.000000 0.000000
						}
					}
				}
				JOINT LeftShoulder
				{
					OFFSET 0.078845 0.121749 -0.034090
					CHANNELS 3 Zrotation Yrotation Xrotation
					JOINT LeftArm
					{
						OFFSET 0.090977 0.030469 -0.008868
						CHANNELS 3 Zrotation Yrotation Xrotation
						JOINT LeftForeArm
						{
							OFFSET 0.259612 -0.012772 -0.027456
							CHANNELS 3 Zrotation Yrotation Xrotation
							JOINT LeftHand
							{
								OFFSET 0.249234 0.008986 -0.001171
								CHANNELS 3 Zrotation Yrotation Xrotation
								End Site
								{
									OFFSET 0.000000 0.000000 0.000000
								}
							}
						}
					}
				}
				JOINT RightShoulder
				{
					OFFSET -0.081759 0.118833 -0.038615
					CHANNELS 3 Zrotation Yrotation Xrotation
					JOINT RightArm
					{
						OFFSET -0.096012 0.032551 -0.009143
						CHANNELS 3 Zrotation Yrotation Xrotation
						JOINT RightForeArm
						{
							OFFSET -0.253742 -0.013329 -0.021401
							CHANNELS 3 Zrotation Yrotation Xrotation
							JOINT RightHand
							{
								OFFSET -0.255298 0.007772 -0.005559
								CHANNELS 3 Zrotation Yrotation Xrotation
								End Site
								{
									OFFSET 0.000000 0.000000 0.000000
								}
							}
						}
					}
				}
			}
		}
	}
}
MOTION
Frames: 12
Frame Time: 0.050000
0.000000 0.943294 0.000000 -1.087556 3.600782 2.863527 5.188146 -0.074350 1.577798 -1.646007 0.243861 -4.107070 1.119168 5.958044 9.185143 0.000000 0.000000 0.000000 -1.453666 -0.071584 1.171510 -2.333734 0.128601 -2.199799 -2.052286 -8.082658 10.487314 0.000000 0.000000 0.000000 -1.195206 -0.016685 1.186134 3.855676 -0.230594 -24.579547 -1.082555 -1.770705 28.424071 0.818476 1.110001 -25.085859 0.000000 0.000000 0.000000 -16.131285 5.755989 -3.948690 -47.840530 2.926833 -8.889488 -13.926853 -32.446712 5.773789 0.000000 0.000000 0.000000 8.713150 -1.029694 -0.767264 52.269286 -2.898438 -8.550485 5.422602 36.136767 3.525222 0.000000 0.000000 0.000000 
0.000141 0.942502 -0.000016 -1.228257 3.203649 3.269565 5.177872 -0.051568 2.106277 -1.458976 0.263389 -5.717858 1.266656 6.239682 9.400356 0.000000 0.000000 0.000000 -1.717122 -0.026003 0.791695 -1.692175 0.055627 -2.431353 -1.879083 -7.741852 10.305984 0.000000 0.000000 0.000000 -1.423190 -0.006078 1.090265 3.865078 -0.188734 -25.522148 -0.976037 -1.576661 28.902533 0.814396 1.158119 -25.932249 0.000000 0.000000 0.000000 -15.137660 6.781343 -4.311022 -49.621315 2.354488 -9.055880 -14.151582 -31.300194 5.694546 0.000000 0.000000 0.000000 7.678597 -1.440399 -0.887796 54.184880 -4.505751 -9.568799 5.035728 37.835984 3.669435 0.000000 0.000000 0.000000 
0.000161 0.942169 -0.000086 -0.850922 3.869415 3.161683 4.890287 -0.056136 1.829759 -1.547487 0.255828 -5.189974 0.971913 5.729477 9.182118 0.000000 0.000000 0.000000 -2.101162 -0.058717 1.266884 -1.603805 0.027786 -2.840813 -2.181061 -8.256725 10.268186 0.000000 0.000000 0.000000 -1.302041 0.003023 0.644125 3.459179 -0.089935 -25.475562 -1.656228 -2.050103 29.477739 1.014083 1.121986 -27.437018 0.000000 0.000000 0.000000 -14.944235 6.115166 -3.917746 -49.958083 2.478563 -9.218238 -13.812096 -31.422145 5.636608 0.000000 0.000000 0.000000 8.411784 -0.904946 -0.690153 54.483054 -4.384994 -9.612480 3.778565 36.980003 3.169510 0.000000 0.000000 0.000000 
0.000124 0.942019 -0.000131 -0.812013 4.180766 3.038816 4.953005 -0.059293 1.884851 -1.665374 0.259922 -5.141330 0.826429 5.481342 9.099195 0.000000 0.000000 0.000000 -2.200285 -0.097212 1.726937 -1.433515 -0.012448 -3.337415 -2.276541 -8.434767 10.372200 0.000000 0.000000 0.000000 -1.750033 0.008666 0.774374 3.768123 -0.109396 -26.510039 -1.856655 -2.476289 30.501519 0.793693 1.194807 -27.397005 0.000000 0.000000 0.000000 -15.049814 7.060065 -4.357943 -50.356531 2.694486 -9.451480 -14.343561 -31.275963 5.816281 0.000000 0.000000 0.000000 7.676957 -0.731118 -0.586540 54.857044 -4.489616 -9.808279 3.587351 36.370337 3.043473 0.000000 0.000000 0.000000 
-0.000029 0.942397 -0.000147 -0.808874 4.296326 2.815447 4.794052 -0.043442 2.053500 -1.346195 0.240510 -5.046343 0.757946 5.394267 9.148337 0.000000 0.000000 0.000000 -2.036130 -0.119246 1.890646 -1.690733 0.018821 -3.167834 -2.323660 -8.530795 10.442669 0.000000 0.000000 0.000000 -1.598828 0.004123 0.773916 3.842419 -0.146890 -26.063155 -2.199074 -2.215077 29.965960 0.843104 1.213940 -27.078733 0.000000 0.000000 0.000000 -14.348422 7.018925 -4.310156 -51.401118 2.719815 -9.588225 -14.358405 -31.550366 5.855904 0.000000 0.000000 0.000000 7.396490 -1.030188 -0.678796 55.690915 -4.428821 -9.836367 2.936111 35.863288 2.833430 0.000000 0.000000 0.000000 
-0.000110 0.942619 -0.000173 -0.826861 4.493836 2.808202 4.841026 -0.044626 2.136884 -1.346029 0.243446 -5.249356 0.633826 5.239258 9.256962 0.000000 0.000000 0.000000 -2.062968 -0.127093 1.978523 -1.552218 0.002264 -3.268108 -2.384530 -8.654773 10.571668 0.000000 0.000000 0.000000 -1.863040 0.012634 0.648966 3.930503 -0.156255 -26.251657 -2.097319 -2.539547 30.398312 0.452617 1.403046 -27.138227 0.000000 0.000000 0.000000 -14.504151 7.400180 -4.485910 -51.449165 2.442886 -9.519605 -14.340372 -31.320785 5.834129 0.000000 0.000000 0.000000 7.111427 -1.085181 -0.702215 55.577555 -4.327098 -9.810937 2.567372 35.476518 2.666764 0.000000 0.000000 0.000000 
-0.000185 0.942996 -0.000227 -0.768642 4.391079 2.688765 4.783100 -0.029871 2.347689 -1.368004 0.247210 -5.362785 0.630492 5.285206 9.429471 0.000000 0.000000 0.000000 -2.014565 -0.133189 2.027094 -1.768515 0.026764 -3.150400 -2.338799 -8.586663 10.620034 0.000000 0.000000 0.000000 -1.844399 0.009221 0.750305 3.822943 -0.141341 -26.088256 -2.087624 -2.385087 30.264814 0.572439 1.348387 -27.096781 0.000000 0.000000 0.000000 -14.721608 7.429401 -4.549183 -51.478206 2.599211 -9.579351 -14.498811 -31.368986 5.884339 0.000000 0.000000 0.000000 7.525020 -1.343385 -0.827759 55.324453 -4.500707 -9.838301 2.619178 35.831817 2.725379 0.000000 0.000000 0.000000 
-0.000190 0.943171 -0.000297 -0.831256 4.137636 2.683012 4.761649 -0.024435 2.373596 -1.259303 0.242163 -5.338514 0.750267 5.481918 9.477160 0.000000 0.000000 0.000000 -2.046007 -0.126513 1.979760 -1.646651 0.015986 -3.144238 -2.208465 -8.365951 10.654934 0.000000 0.000000 0.000000 -1.835183 0.010060 0.712999 3.797057 -0.140697 -26.039666 -2.023609 -2.234324 30.350011 0.385321 1.451022 -27.038725 0.000000 0.000000 0.000000 -14.874059 7.504991 -4.607492 -51.354068 2.607951 -9.565886 -14.519022 -31.500360 5.919440 0.000000 0.000000 0.000000 7.841744 -1.574446 -0.945815 55.074303 -4.495657 -9.808777 2.661784 36.499902 2.806840 0.000000 0.000000 0.000000 
-0.000213 0.943332 -0.000432 -0.837662 4.022024 2.706264 4.769221 -0.017535 2.511456 -1.283084 0.249154 -5.612204 0.768943 5.551968 9.622303 0.000000 0.000000 0.000000 -2.046794 -0.125867 1.981628 -1.656976 0.010890 -3.244755 -2.142500 -8.263671 10.722057 0.000000 0.000000 0.000000 -1.801692 0.011579 0.631694 3.764364 -0.139067 -25.945281 -2.010677 -2.086056 30.214827 0.410067 1.443312 -26.883340 0.000000 0.000000 0.000000 -14.859285 7.543042 -4.641691 -51.436697 2.623592 -9.571385 -14.187263 -31.301502 5.774888 0.000000 0.000000 0.000000 8.125899 -1.886640 -1.093625 54.995473 -4.661843 -9.854142 2.902079 37.318903 2.976994 0.000000 0.000000 0.000000 
-0.000260 0.943428 -0.000650 -0.829546 3.881097 2.722135 4.823831 -0.015697 2.578241 -1.420903 0.259164 -5.744863 0.808740 5.638699 9.720529 0.000000 0.000000 0.000000 -2.185588 -0.110761 1.877163 -1.451066 -0.001697 -3.151989 -2.075713 -8.144854 10.705031 0.000000 0.000000 0.000000 -1.739540 0.012635 0.548095 3.614215 -0.108364 -25.936465 -1.938753 -1.952758 30.303306 0.329629 1.500216 -26.927737 0.000000 0.000000 0.000000 -15.124004 7.554223 -4.693821 -51.277387 2.632920 -9.554189 -14.104950 -31.264624 5.742270 0.000000 0.000000 0.000000 8.391056 -2.113310 -1.203668 54.861435 -4.682399 -9.851520 3.226605 38.073586 3.174557 0.000000 0.000000 0.000000 
-0.000295 0.943389 -0.000945 -0.824527 3.814213 2.793983 4.863243 -0.017644 2.576665 -1.513573 0.266638 -5.896126 0.826965 5.681758 9.777477 0.000000 0.000000 0.000000 -2.254127 -0.101726 1.809936 -1.350543 -0.014180 -3.224749 -2.042064 -8.086588 10.708451 0.000000 0.000000 0.000000 -1.714910 0.017767 0.338461 3.618232 -0.109583 -25.919830 -2.017710 -1.986944 30.253937 0.240840 1.541454 -26.966232 0.000000 0.000000 0.000000 -15.052705 7.465493 -4.623342 -51.109419 2.722388 -9.549529 -14.026481 -31.230838 5.712298 0.000000 0.000000 0.000000 8.348668 -2.089770 -1.200960 55.036512 -4.693163 -9.877553 3.440484 38.596129 3.294428 0.000000 0.000000 0.000000 
-0.000316 0.943474 -0.001262 -0.856688 3.772030 2.828464 4.971732 -0.023653 2.564413 -1.652420 0.274702 -5.970763 0.832532 5.706630 9.836938 0.000000 0.000000 0.000000 -2.320324 -0.098681 1.807718 -1.177733 -0.034794 -3.343860 -2.001214 -8.026314 10.777874 0.000000 0.000000 0.000000 -1.729485 0.020684 0.239926 3.602017 -0.103925 -25.973647 -1.956704 -2.022022 30.298663 0.145052 1.600439 -27.230882 0.000000 0.000000 0.000000 -15.193241 7.301258 -4.545799 -50.750373 2.671088 -9.469196 -14.239391 -31.330113 5.792835 0.000000 0.000000 0.000000 8.350603 -2.045162 -1.187555 55.131454 -4.594734 -9.856856 3.801443 38.962988 3.453200 0.000000 0.000000 0.000000 
